<?xml version="1.0" encoding="UTF-8" standalone="no"?>
<!DOCTYPE svg PUBLIC "-//W3C//DTD SVG 1.1//EN" "http://www.w3.org/Graphics/SVG/1.1/DTD/svg11.dtd">
<svg width="456" height="456" viewBox="0 0 456 456" version="1.1" xmlns="http://www.w3.org/2000/svg" xmlns:xlink="http://www.w3.org/1999/xlink" xml:space="preserve" xmlns:serif="http://www.serif.com/" style="fill-rule:evenodd;clip-rule:evenodd;stroke-linejoin:round;stroke-miterlimit:2;">
<g xmlns="http://www.w3.org/2000/svg" clip-path="url(#clip0_66_447)">
<path d="M139.167 201.792C156.563 201.792 171.349 195.703 183.526 183.526C195.703 171.349 201.792 156.562 201.792 139.167C201.792 121.771 195.703 106.984 183.526 94.8073C171.349 82.6302 156.563 76.5417 139.167 76.5417C121.771 76.5417 106.984 82.6302 94.8073 94.8073C82.6302 106.984 76.5417 121.771 76.5417 139.167C76.5417 156.562 82.6302 171.349 94.8073 183.526C106.984 195.703 121.771 201.792 139.167 201.792ZM139.167 173.958C129.425 173.958 121.191 170.595 114.465 163.869C107.738 157.142 104.375 148.908 104.375 139.167C104.375 129.425 107.738 121.191 114.465 114.465C121.191 107.738 129.425 104.375 139.167 104.375C148.908 104.375 157.142 107.738 163.869 114.465C170.595 121.191 173.958 129.425 173.958 139.167C173.958 148.908 170.595 157.142 163.869 163.869C157.142 170.595 148.908 173.958 139.167 173.958ZM27.8333 250.5C20.1792 250.5 13.6267 247.775 8.17604 242.324C2.72535 236.873 0 230.321 0 222.667V55.6667C0 48.0125 2.72535 41.4601 8.17604 36.0094C13.6267 30.5587 20.1792 27.8333 27.8333 27.8333H71.6708L97.4167 0H180.917L206.663 27.8333H250.5C258.154 27.8333 264.707 30.5587 270.157 36.0094C275.608 41.4601 278.333 48.0125 278.333 55.6667V222.667C278.333 230.321 275.608 236.873 270.157 242.324C264.707 247.775 258.154 250.5 250.5 250.5H27.8333ZM27.8333 222.667H250.5V55.6667H194.138L168.74 27.8333H109.594L84.1958 55.6667H27.8333V222.667Z" fill="black"/>
<path d="M147.667 177H163V102H147.667V132H132.333V102H117V147H147.667V177Z" fill="black"/>
</g>
</svg>